<?xml version="1.0" encoding="utf-8"?>
<!-- Generator: Adobe Illustrator 22.0.1, SVG Export Plug-In . SVG Version: 6.00 Build 0)  -->
<svg version="1.1" id="Layer_1" xmlns="http://www.w3.org/2000/svg" xmlns:xlink="http://www.w3.org/1999/xlink" x="0px" y="0px"
	 viewBox="0 0 16 16" style="enable-background:new 0 0 16 16;" xml:space="preserve">
<style type="text/css">
	.st0{fill:#055666;}
</style>
<rect x="3.1" y="1" class="st0" width="1.7" height="1"/>
<rect x="2.1" y="2.1" class="st0" width="1" height="1"/>
<rect x="1" y="3.1" class="st0" width="1" height="1.7"/>
<rect x="1" y="11.1" class="st0" width="1" height="1.7"/>
<rect x="2.1" y="12.9" class="st0" width="1" height="1"/>
<rect x="3.1" y="13.9" class="st0" width="1.7" height="1"/>
<g>
	<rect x="4.9" class="st0" width="6.3" height="1"/>
</g>
<rect x="4.9" y="15" class="st0" width="6.3" height="1"/>
<rect y="4.9" class="st0" width="1" height="6.3"/>
<rect x="11.1" y="1" class="st0" width="1.7" height="1"/>
<rect x="12.9" y="2.1" class="st0" width="1" height="1"/>
<rect x="13.9" y="3.1" class="st0" width="1" height="1.7"/>
<rect x="13.9" y="11.1" class="st0" width="1" height="1.7"/>
<rect x="12.9" y="12.9" class="st0" width="1" height="1"/>
<rect x="11.1" y="13.9" class="st0" width="1.7" height="1"/>
<rect x="15" y="4.9" class="st0" width="1" height="6.3"/>
<polygon class="st0" points="9.7,3.8 9.7,4.9 8.7,4.9 8.7,5.9 7.3,5.9 7.3,4.9 6.3,4.9 6.3,3.8 3.8,3.8 3.8,5.2 4.9,5.2 4.9,6.3 
	5.9,6.3 5.9,7.3 7,7.3 7,8.3 5.9,8.3 5.9,9.4 4.9,9.4 4.9,10.4 3.8,10.4 3.8,10.8 3.8,11.8 6.3,11.8 6.3,10.8 7.3,10.8 7.3,9.7 
	8.7,9.7 8.7,10.8 9.7,10.8 9.7,11.8 12.2,11.8 12.2,10.4 11.1,10.4 11.1,9.4 10.1,9.4 10.1,8.3 9,8.3 9,7.3 10.1,7.3 10.1,6.3 
	11.1,6.3 11.1,5.2 12.2,5.2 12.2,4.9 12.2,3.8 "/>
</svg>
